<?xml version="1.0" encoding="UTF-8"?>
<svg id="Layer_1" xmlns="http://www.w3.org/2000/svg" version="1.1" viewBox="0 0 1920 1080">
  <!-- Generator: Adobe Illustrator 30.4.0, SVG Export Plug-In . SVG Version: 2.1.4 Build 226)  -->
  <defs>
    <style>
      .st0 {
        fill: #fabf14;
      }

      .st1 {
        fill: #ffe57d;
      }

      .st2 {
        fill: #fff;
      }

      .st3 {
        fill: #e8a524;
      }

      .st4 {
        fill: #d3d3d3;
      }
    </style>
  </defs>
  <polygon class="st2" points="439.87 532.73 566.3 392.4 577.66 343.19 367.2 343.19 348.92 422.35 442.95 422.35 316.52 562.68 305.16 611.89 517.53 611.89 535.8 532.73 439.87 532.73"/>
  <polygon class="st2" points="627.55 534.26 632.03 514.83 702.29 514.83 719.69 439.49 649.43 439.49 653.74 420.83 780.48 420.83 798.4 343.19 588.7 343.19 526.67 611.89 738.27 611.89 756.19 534.26 627.55 534.26"/>
  <path class="st2" d="M959.67,509.71c13.52-7.01,25.65-16.06,36.15-26.97,13.33-13.85,22.1-29.56,26.05-46.69,2.88-12.49,3.46-24.48,1.71-35.65-1.78-11.34-6.14-21.4-12.96-29.9-6.79-8.46-16.36-15.22-28.43-20.09-11.91-4.79-26.56-7.22-43.54-7.22h-128.64l-62.03,268.69h82.96l19.95-86.4h25.02l26.87,86.4h92.44l-35.54-102.18h-.01ZM926.08,452.31c-6.51,5.72-13.81,8.48-21.5,8.48h-37.68l12.82-55.63h37.68c7.89,0,13.81,2.56,17.76,7.89,4.34,5.33,5.52,12.03,3.75,19.73-1.78,7.69-6.12,14.2-12.82,19.53h-.01Z"/>
  <path class="st4" d="M322.35,723.79c-3.36,0-6.35-.93-8.97-2.62s-4.48-4.11-5.79-6.91l.56-1.12v9.9h-2.99v-49.89h2.99v25.04l-.56-1.12c1.31-2.8,3.18-5.23,5.79-6.91,2.62-1.68,5.61-2.62,8.97-2.62s6.17.75,8.78,2.43c2.62,1.49,4.67,3.74,6.17,6.54,1.49,2.8,2.24,5.79,2.24,9.34s-.75,6.54-2.24,9.16c-1.49,2.8-3.55,4.86-6.17,6.54-2.62,1.68-5.42,2.43-8.78,2.43v-.19ZM322.35,720.99c2.62,0,5.04-.75,7.1-2.06s3.74-3.18,5.04-5.42c1.12-2.24,1.87-4.86,1.87-7.85s-.56-5.42-1.87-7.85c-1.12-2.24-2.8-4.11-5.04-5.42-2.06-1.31-4.48-2.06-7.1-2.06s-5.04.75-7.1,2.06-3.74,3.18-5.04,5.42-1.87,4.86-1.87,7.85.56,5.42,1.87,7.85c1.31,2.24,2.99,4.11,5.04,5.42s4.48,2.06,7.1,2.06Z"/>
  <path class="st4" d="M348.51,737.62h-1.87c-.75,0-1.31-.19-2.06-.37v-2.62c.56,0,1.31.37,1.87.37h1.68c2.24,0,3.92-.56,5.23-1.68s2.43-2.8,3.36-4.86l2.8-6.54v2.99l-14.57-36.25h3.36l13.27,32.7h-1.87l13.45-32.7h3.36l-16.63,39.99c-.56,1.12-1.12,2.43-2.06,3.92-.93,1.49-2.24,2.62-3.74,3.74-1.49,1.12-3.36,1.49-5.61,1.49v-.19h.03Z"/>
  <path class="st4" d="M958.01,660.26h9.9l26.53,60.91h-11.21l-6.17-14.57h-28.59l-6.17,14.57h-10.84l26.72-60.91h-.19.02ZM973.15,697.07l-10.46-24.29-10.46,24.29h20.93,0Z"/>
  <path class="st4" d="M870.94,660.64h10.46v25.22h28.96v-25.22h10.46v60.54h-10.46v-25.41h-28.96v25.41h-10.46v-60.54Z"/>
  <path class="st4" d="M498.36,670.76c4.11,5.23,7.47,11.21,10.09,17.56v-33.82h-28.77c6.91,3.74,13.27,9.16,18.69,16.26h-.01Z"/>
  <path class="st4" d="M456.88,660.45c-5.23,0-10.46,1.12-15.32,3.18v59.98h63.9c-.56-34.94-22.05-63.15-48.58-63.15h0Z"/>
  <path class="st4" d="M546.57,713.33l35.69-43.16h-34.57v-9.34h48.39v7.85l-35.69,43.16h35.69v9.34h-49.51v-7.85Z"/>
  <path class="st4" d="M609.35,660.64h44.84v9.53h-34.19v15.51h30.27v9.53h-30.27v16.07h34.57v9.53h-45.22v-60.54.37h0Z"/>
  <path class="st4" d="M667.27,660.64h26.91c3.74,0,7.1.56,10.09,1.68,2.99,1.12,5.42,2.62,7.29,4.48,1.68,1.68,2.8,3.55,3.74,5.79s1.31,4.67,1.31,7.29-.37,4.86-1.12,6.91c-.75,2.06-1.68,3.74-2.99,5.23s-2.8,2.8-4.48,3.92-3.74,1.87-5.79,2.43l16.26,22.98h-12.52l-14.95-21.11h-13.27v21.11h-10.46v-60.73l-.02.02h0ZM693.43,690.53c3.74,0,6.91-.93,9.16-2.8s3.36-4.3,3.36-7.47c0-3.55-1.12-5.98-3.36-7.66s-5.23-2.62-9.34-2.62h-15.51v20.37h15.7v.19h0Z"/>
  <path class="st4" d="M758.64,722.11c-4.67,0-8.97-.75-12.71-2.43-3.92-1.68-7.1-3.92-9.9-6.73s-4.86-6.17-6.54-9.9c-1.49-3.74-2.43-7.85-2.43-12.15s.75-8.41,2.43-12.15c1.49-3.74,3.74-7.1,6.54-9.9,2.8-2.8,6.17-5.04,10.09-6.73,3.92-1.68,8.03-2.43,12.71-2.43s8.97.75,12.71,2.43c3.92,1.68,7.1,3.92,9.9,6.73s4.86,6.17,6.54,9.9c1.49,3.74,2.43,7.85,2.43,12.15s-.75,8.41-2.43,12.15c-1.49,3.74-3.74,7.1-6.54,9.9-2.8,2.8-6.17,5.04-10.09,6.73-3.92,1.68-8.03,2.43-12.71,2.43ZM758.83,712.39c2.99,0,5.79-.56,8.22-1.68s4.67-2.62,6.35-4.67c1.87-1.87,3.18-4.11,4.11-6.73s1.49-5.42,1.49-8.22c0-3.18-.56-5.98-1.49-8.6s-2.43-4.86-4.3-6.91c-1.87-1.87-3.92-3.55-6.54-4.67s-5.23-1.68-8.22-1.68-5.79.56-8.22,1.68-4.67,2.62-6.35,4.67c-1.87,1.87-3.18,4.11-4.11,6.73s-1.49,5.42-1.49,8.22c0,3.18.56,5.98,1.49,8.6s2.43,4.86,4.3,6.91c1.87,2.06,3.92,3.55,6.54,4.67s5.23,1.68,8.22,1.68Z"/>
  <path class="st4" d="M803.3,660.64h22.61c4.67,0,8.97.75,13.08,2.24,3.92,1.49,7.29,3.55,10.28,6.35,2.8,2.62,5.04,5.98,6.54,9.53,1.49,3.74,2.43,7.66,2.43,11.96s-.75,8.41-2.43,12.15c-1.49,3.74-3.74,6.91-6.54,9.53-2.8,2.62-6.17,4.86-10.28,6.35-3.92,1.49-8.22,2.43-13.08,2.43h-22.61v-60.54h0ZM825.72,711.46c3.18,0,5.98-.56,8.6-1.49s4.86-2.43,6.54-4.3c1.87-1.87,3.18-3.92,4.3-6.54.93-2.43,1.49-5.23,1.49-8.22,0-3.18-.56-5.79-1.49-8.41s-2.43-4.67-4.3-6.54-4.11-3.18-6.54-4.3c-2.62-1.12-5.42-1.49-8.6-1.49h-11.96v41.29h11.96Z"/>
  <polygon class="st2" points="1280.6 343.45 1263.22 418.72 1288.32 418.72 1243.72 611.89 1324.7 611.89 1386.68 343.45 1280.6 343.45"/>
  <path class="st2" d="M1159.94,343.45h0c-59.13,0-118.12,47.93-131.77,107.06l-12.54,54.33c-13.65,59.13,23.22,107.06,82.34,107.06h0c59.13,0,118.12-47.93,131.77-107.06l12.54-54.33c13.65-59.13-23.22-107.06-82.34-107.06h0ZM1136.8,521.55c-6.07,4.93-12.89,7.39-19.91,7.39s-12.32-2.46-16.11-7.39-4.74-10.81-3.22-17.82l11.94-51.94c1.71-7.01,5.5-13.08,11.56-18.01,6.07-4.93,12.32-7.39,19.53-7.39s12.7,2.46,16.49,7.39c3.79,4.93,4.93,11,3.22,18.01l-11.94,51.94c-1.71,7.01-5.5,12.89-11.56,17.82Z"/>
  <path class="st0" d="M1471.39,343.45l-36.92,157.51,60.58-1.33-32.94,112.26,153.72-167.92-72.88,1.7,63.04-102.23h-134.6Z"/>
  <path class="st3" d="M1615.84,443.97l-153.72,167.92,112.83-166.97,40.89-.95Z"/>
  <path class="st3" d="M1605.99,343.45l-64.37,104.31,38.05-104.31h26.32Z"/>
  <path class="st1" d="M1479.72,430.34l-2.65,11.36-15.71-.38,2.84-11.74,15.52.76Z"/>
  <path class="st1" d="M1466.66,420.12l16.28-66.64,15.71.38-16.47,66.64-15.52-.38Z"/>
  <path class="st1" d="M1482.19,420.5h-15.71l.57-2.27h13.06l2.08,2.27Z"/>
  <path class="st1" d="M1464.2,429.58h15.9l-.76,2.65-10.03,3.22-5.11-5.87Z"/>
  <path class="st1" d="M1476.88,441.7h-15.52l.38-1.7"/>
</svg>