<svg width="27" height="19" viewBox="0 0 27 19" fill="none" xmlns="http://www.w3.org/2000/svg">
<path d="M26.3453 0L14.3131 11.9826C14.0034 12.2905 13.5845 12.4633 13.1478 12.4633C12.7112 12.4633 12.2923 12.2905 11.9826 11.9826L0.0578473 0.0909029C0.0211881 0.225638 0.00175086 0.364475 0 0.504097V17.0319C0 17.4702 0.174131 17.8906 0.484087 18.2006C0.794043 18.5105 1.21443 18.6847 1.65278 18.6847H24.7917C25.23 18.6847 25.6504 18.5105 25.9604 18.2006C26.2703 17.8906 26.4444 17.4702 26.4444 17.0319V0.504097C26.4379 0.331923 26.4044 0.161836 26.3453 0ZM2.78493 17.0319H1.63625V15.8501L7.6441 9.89188L8.80931 11.0571L2.78493 17.0319ZM24.7751 17.0319H23.6182L17.5938 11.0571L18.759 9.89188L24.7669 15.8501L24.7751 17.0319Z" fill="#87B7FF"/>
</svg>
